<svg width="164" height="73" viewBox="0 0 164 73" fill="none" xmlns="http://www.w3.org/2000/svg">
    <path d="M31.9725 24.8141C26.9413 24.8141 23 27.1684 23 30.1734V39.3606C23 42.3656 26.9413 44.7198 31.9725 44.7198C37.0036 44.7198 40.9449 42.3656 40.9449 39.3606V30.1734C40.9449 27.1684 37.0036 24.8141 31.9725 24.8141ZM39.4495 34.767C39.4495 35.6876 38.713 36.6264 37.4298 37.3432C35.9848 38.15 34.0464 38.595 31.9725 38.595C29.8985 38.595 27.9601 38.15 26.5152 37.3432C25.2319 36.6264 24.4954 35.6876 24.4954 34.767V33.1745C26.0899 34.61 28.8162 35.5326 31.9725 35.5326C35.1287 35.5326 37.855 34.6062 39.4495 33.1745V34.767ZM26.5152 27.5971C27.9601 26.7904 29.8985 26.3454 31.9725 26.3454C34.0464 26.3454 35.9848 26.7904 37.4298 27.5971C38.713 28.3139 39.4495 29.2527 39.4495 30.1734C39.4495 31.094 38.713 32.0328 37.4298 32.7496C35.9848 33.5564 34.0464 34.0014 31.9725 34.0014C29.8985 34.0014 27.9601 33.5564 26.5152 32.7496C25.2319 32.0328 24.4954 31.094 24.4954 30.1734C24.4954 29.2527 25.2319 28.3139 26.5152 27.5971ZM37.4298 41.9369C35.9848 42.7436 34.0464 43.1886 31.9725 43.1886C29.8985 43.1886 27.9601 42.7436 26.5152 41.9369C25.2319 41.2201 24.4954 40.2812 24.4954 39.3606V37.7682C26.0899 39.2037 28.8162 40.1262 31.9725 40.1262C35.1287 40.1262 37.855 39.1998 39.4495 37.7682V39.3606C39.4495 40.2812 38.713 41.2201 37.4298 41.9369Z" fill="#2DFF0B"/>
    <path d="M58.9019 39.1526C58.9019 40.8086 58.9837 42.5312 59.1473 44.3204L57.2354 44.4702L56.9124 42.7351C55.8186 43.5839 54.3717 44.1748 52.5717 44.5076C51.9861 44.6158 51.465 44.6699 51.0086 44.6699C50.5521 44.6699 50.1473 44.6491 49.7942 44.6075C49.4497 44.5659 49.1138 44.4868 48.7866 44.3703C48.4679 44.2455 48.1708 44.0749 47.8952 43.8585C47.6196 43.6422 47.3784 43.3551 47.1717 42.9972C46.7325 42.2399 46.5129 41.3329 46.5129 40.276C46.5129 39.2108 46.5904 38.387 46.7454 37.8044C46.9091 37.2136 47.176 36.7226 47.5464 36.3315C48.2784 35.5576 49.51 35.1706 51.2411 35.1706C52.9722 35.1706 54.8196 35.4868 56.7832 36.1193V34.4965C56.7832 32.6907 56.0124 31.6214 54.4708 31.2885C53.9713 31.1803 53.3985 31.1262 52.7526 31.1262C51.2799 31.1262 49.7512 31.4092 48.1665 31.975L47.6885 30.1775C48.1277 29.8946 49.2473 29.6408 51.0473 29.4161C51.6158 29.3495 52.2961 29.3162 53.0885 29.3162C53.8894 29.3162 54.6732 29.4078 55.4397 29.5908C56.2062 29.7739 56.8435 30.0735 57.3516 30.4896C58.3851 31.3135 58.9019 32.6491 58.9019 34.4965V39.1526ZM56.7315 37.6796C54.7162 37.1886 52.8559 36.9431 51.1507 36.9431C50.1 36.9431 49.4024 37.2344 49.0579 37.8169C48.8253 38.2247 48.7091 38.828 48.7091 39.6269C48.7091 40.4258 48.7521 41.0042 48.8382 41.362C48.933 41.7198 49.0837 42.0153 49.2904 42.2483C49.6952 42.6893 50.3626 42.9098 51.2928 42.9098C52.7483 42.9098 54.1909 42.5479 55.6205 41.8239C56.0598 41.6075 56.456 41.3662 56.8091 41.0999C56.7574 40.2011 56.7315 39.061 56.7315 37.6796Z" fill="#2DFF0B"/>
    <path d="M64.7799 41.4743C66.554 42.4313 68.3368 42.9098 70.1282 42.9098C71.6182 42.9098 72.4923 42.3981 72.7507 41.3745C72.8368 41.025 72.8799 40.6006 72.8799 40.1012C72.8799 39.5936 72.8196 39.2025 72.699 38.9279C72.5784 38.6449 72.3761 38.4369 72.0918 38.3037C71.8076 38.1623 71.4287 38.0583 70.955 37.9917C70.4899 37.9251 69.8957 37.8336 69.1722 37.7171C68.4488 37.5922 67.7856 37.4549 67.1827 37.3051C66.5799 37.1553 66.0674 36.939 65.6454 36.656C64.7497 36.0485 64.3191 35.025 64.3536 33.5853V33.2732C64.3536 31.7587 64.8703 30.681 65.9038 30.0402C66.9028 29.4078 68.5521 29.1914 70.8517 29.3911C72.4191 29.5326 73.6679 29.7947 74.5981 30.1775L73.9909 32.0624C72.9574 31.638 71.7172 31.3301 70.2703 31.1387C69.8225 31.0804 69.4005 31.0513 69.0043 31.0513C68.6167 31.0513 68.2636 31.0804 67.945 31.1387C67.6263 31.1969 67.3593 31.3051 67.144 31.4632C66.7306 31.7878 66.5153 32.3911 66.4981 33.2732C66.4722 34.3135 66.7737 34.975 67.4024 35.258C68.0052 35.5326 68.7201 35.724 69.5469 35.8322C70.3737 35.932 71.0497 36.0236 71.5751 36.1068C72.1005 36.1817 72.5784 36.2857 73.0091 36.4189C73.4397 36.552 73.81 36.7642 74.1201 37.0555C74.766 37.6463 75.0804 38.6741 75.0631 40.1387C75.0201 42.6935 73.9177 44.1498 71.756 44.5076C71.1014 44.6158 70.4469 44.6699 69.7923 44.6699C69.1378 44.6699 68.5349 44.6283 67.9837 44.5451C67.4411 44.4702 66.9201 44.362 66.4205 44.2205C65.4732 43.9626 64.6162 43.6214 63.8497 43.1969L64.7799 41.4743Z" fill="#2DFF0B"/>
    <path d="M80.1402 23.2247L82.2847 23V35.8821C82.6292 35.9487 83.0426 35.7781 83.5249 35.3703C84.0158 34.9626 84.4507 34.5756 84.8296 34.2094C85.2086 33.835 85.6005 33.4272 86.0052 32.9861C87.4607 31.3634 88.4167 30.2233 88.8732 29.5659H91.4311C91.2416 29.982 90.8067 30.5728 90.1263 31.3384L88.3952 33.2233C87.4564 34.1969 86.7029 34.9168 86.1344 35.3828C85.5746 35.8488 85.2043 36.1151 85.0234 36.1817V36.3065L85.411 36.4938C85.9708 36.7517 86.7029 37.4383 87.6072 38.5534L92.4258 44.4202H89.7129L86.4316 40.2635C84.9158 38.3495 83.7574 37.3592 82.9564 37.2927L82.6722 37.2677C82.5861 37.2594 82.5086 37.2594 82.4397 37.2677C82.3708 37.2677 82.3191 37.2677 82.2847 37.2677V44.4202H80.1402V23.2247Z" fill="#2DFF0B"/>
    <path d="M94.6478 41.4119C96.6029 42.4105 98.5148 42.9098 100.384 42.9098C102.554 42.9098 103.824 42.2399 104.195 40.9001C104.315 40.4591 104.376 39.9515 104.376 39.3773V38.8904C104.376 38.3079 104.333 37.8377 104.246 37.4799C104.16 37.1221 103.979 36.8308 103.704 36.6061C103.256 36.2316 102.197 35.9196 100.526 35.6699C99.0359 35.4452 98.0067 35.233 97.4383 35.0333C96.8698 34.8336 96.4005 34.6172 96.0301 34.3842C95.6684 34.1429 95.3584 33.8433 95.1 33.4854C94.566 32.7365 94.299 31.7004 94.299 30.3773V30.2524C94.299 27.5062 95.4789 25.8627 97.8387 25.3218C98.588 25.1553 99.4363 25.0721 100.384 25.0721H100.552C102.765 25.0721 104.574 25.38 105.978 25.9958L105.306 27.9057C103.609 27.1983 102.046 26.8447 100.616 26.8447H100.5C98.9239 26.8447 97.8388 27.1318 97.2445 27.706C96.745 28.1886 96.4952 29.025 96.4952 30.215V30.2649C96.4952 31.6214 96.8828 32.5118 97.6579 32.9362C98.1832 33.2108 99.122 33.4522 100.474 33.6602C101.835 33.8682 102.847 34.0472 103.51 34.1969C104.173 34.3384 104.737 34.5756 105.202 34.9085C106.167 35.6075 106.649 36.9348 106.649 38.8904V39.0527C106.649 42.0402 105.405 43.8211 102.916 44.3953C102.149 44.5784 101.426 44.6699 100.745 44.6699C100.065 44.6699 99.445 44.6449 98.8852 44.595C98.334 44.5534 97.7698 44.4743 97.1928 44.3578C95.8407 44.0915 94.7081 43.6921 93.7952 43.1595L94.6478 41.4119Z" fill="#2DFF0B"/>
    <path d="M118.741 44.6574L118.47 44.6699H117.669C114.603 44.6699 112.579 43.7379 111.597 41.8738C111.02 40.792 110.68 39.3481 110.577 37.5423C110.533 36.6935 110.512 35.7698 110.512 34.7712C110.512 33.7725 110.542 32.828 110.602 31.9376C110.663 31.0388 110.779 30.2275 110.951 29.5035C111.132 28.7795 111.382 28.1429 111.7 27.5936C112.028 27.0361 112.454 26.57 112.979 26.1956C114.065 25.4466 115.628 25.0721 117.669 25.0721H118.47C121.665 25.0721 123.711 25.9043 124.606 27.5687C125.166 28.6089 125.48 30.0569 125.549 31.9126C125.584 32.8197 125.601 33.8599 125.601 35.0333C125.601 36.1983 125.549 37.3218 125.446 38.4036C125.351 39.4854 125.132 40.4466 124.787 41.2871C124.046 43.068 122.617 44.1415 120.498 44.5076C121.523 45.706 122.957 46.9792 124.8 48.3273L123.159 50C121.049 48.2774 119.577 46.4965 118.741 44.6574ZM118.444 42.8724C119.391 42.8724 120.175 42.7725 120.795 42.5728C121.424 42.3731 121.919 42.0236 122.281 41.5243C122.953 40.6006 123.289 38.828 123.289 36.2067V34.8585C123.289 33.6019 123.254 32.4827 123.185 31.5007C123.116 30.5187 122.931 29.6907 122.63 29.0166C122.01 27.6186 120.666 26.9196 118.599 26.9196H117.514C115.412 26.9196 114.069 27.5728 113.483 28.8793C113.113 29.7115 112.911 30.6935 112.876 31.8252C112.842 32.957 112.824 33.9681 112.824 34.8585V36.2067C112.824 38.6616 113.203 40.3925 113.961 41.3994C114.693 42.3814 115.929 42.8724 117.669 42.8724H118.444Z" fill="#2DFF0B"/>
    <path d="M130.975 25.3218H133.171V42.5853H141V44.4202H130.975V25.3218Z" fill="#2DFF0B"/>
    <rect x="0.5" y="0.5" width="163" height="72" rx="4.5" stroke="#9747FF" stroke-dasharray="10 5"/>
    </svg>
    