<svg width="24" height="24" viewBox="0 0 24 24" fill="none" xmlns="http://www.w3.org/2000/svg">
    <path d="M19.5 13.5C19.5019 13.8058 19.409 14.1047 19.2341 14.3555C19.0591 14.6063 18.8108 14.7968 18.5232 14.9006L13.681 16.6819L11.8997 21.5203C11.7942 21.8069 11.6034 22.0542 11.3529 22.2289C11.1025 22.4036 10.8045 22.4972 10.4991 22.4972C10.1937 22.4972 9.89571 22.4036 9.64525 22.2289C9.39479 22.0542 9.20395 21.8069 9.09846 21.5203L7.31253 16.6875L2.47315 14.9062C2.18659 14.8008 1.93927 14.6099 1.76458 14.3595C1.58988 14.109 1.49622 13.811 1.49622 13.5056C1.49622 13.2003 1.58988 12.9022 1.76458 12.6518C1.93927 12.4013 2.18659 12.2105 2.47315 12.105L7.31534 10.3238L9.09659 5.48531C9.20207 5.19875 9.39292 4.95143 9.64338 4.77674C9.89384 4.60204 10.1919 4.50838 10.4972 4.50838C10.8026 4.50838 11.1006 4.60204 11.3511 4.77674C11.6015 4.95143 11.7924 5.19875 11.8978 5.48531L13.6791 10.3275L18.5175 12.1088C18.8047 12.2111 19.0532 12.3998 19.2291 12.6488C19.4049 12.8978 19.4996 13.1951 19.5 13.5ZM14.25 4.5H15.75V6C15.75 6.19891 15.829 6.38968 15.9697 6.53033C16.1103 6.67098 16.3011 6.75 16.5 6.75C16.6989 6.75 16.8897 6.67098 17.0304 6.53033C17.171 6.38968 17.25 6.19891 17.25 6V4.5H18.75C18.9489 4.5 19.1397 4.42098 19.2804 4.28033C19.421 4.13968 19.5 3.94891 19.5 3.75C19.5 3.55109 19.421 3.36032 19.2804 3.21967C19.1397 3.07902 18.9489 3 18.75 3H17.25V1.5C17.25 1.30109 17.171 1.11032 17.0304 0.96967C16.8897 0.829018 16.6989 0.75 16.5 0.75C16.3011 0.75 16.1103 0.829018 15.9697 0.96967C15.829 1.11032 15.75 1.30109 15.75 1.5V3H14.25C14.0511 3 13.8603 3.07902 13.7197 3.21967C13.579 3.36032 13.5 3.55109 13.5 3.75C13.5 3.94891 13.579 4.13968 13.7197 4.28033C13.8603 4.42098 14.0511 4.5 14.25 4.5ZM22.5 7.5H21.75V6.75C21.75 6.55109 21.671 6.36032 21.5304 6.21967C21.3897 6.07902 21.1989 6 21 6C20.8011 6 20.6103 6.07902 20.4697 6.21967C20.329 6.36032 20.25 6.55109 20.25 6.75V7.5H19.5C19.3011 7.5 19.1103 7.57902 18.9697 7.71967C18.829 7.86032 18.75 8.05109 18.75 8.25C18.75 8.44891 18.829 8.63968 18.9697 8.78033C19.1103 8.92098 19.3011 9 19.5 9H20.25V9.75C20.25 9.94891 20.329 10.1397 20.4697 10.2803C20.6103 10.421 20.8011 10.5 21 10.5C21.1989 10.5 21.3897 10.421 21.5304 10.2803C21.671 10.1397 21.75 9.94891 21.75 9.75V9H22.5C22.6989 9 22.8897 8.92098 23.0304 8.78033C23.171 8.63968 23.25 8.44891 23.25 8.25C23.25 8.05109 23.171 7.86032 23.0304 7.71967C22.8897 7.57902 22.6989 7.5 22.5 7.5Z" fill="white"/>
    </svg>
    