<svg width="86" height="44" viewBox="0 0 86 44" fill="none" xmlns="http://www.w3.org/2000/svg">
<path fill-rule="evenodd" clip-rule="evenodd" d="M38.7019 1.22277C40.174 2.0511 41.3597 3.19498 42.2184 4.65442L42.2389 4.69386C43.118 6.1533 43.5473 7.82967 43.5473 9.66383C43.5473 11.498 43.118 13.1546 42.2593 14.6141C41.4006 16.0735 40.2148 17.1977 38.7428 18.026C37.2504 18.8346 35.5943 19.2488 33.8156 19.2488C32.0369 19.2488 30.4014 18.8346 28.9293 18.026C27.4573 17.2174 26.2715 16.0735 25.4128 14.6141C24.5337 13.1546 24.1044 11.4783 24.1044 9.62438C24.1044 7.77051 24.5542 6.09413 25.4128 4.63469C26.2715 3.17526 27.4573 2.03138 28.9293 1.22277C30.4014 0.414164 32.0369 0 33.8156 0C35.5943 0 37.2299 0.394442 38.7019 1.22277ZM5.41786 0.374695H0V18.8346H4.39562V8.16492H4.4774L4.74955 8.7825C5.31249 10.0599 5.75094 11.0547 6.05165 11.7543C6.36037 12.4726 6.8304 13.5176 7.4474 14.8894L7.44755 14.8897L7.44764 14.8899L7.44774 14.8901L7.68723 15.4227C7.94084 16.019 8.14529 16.4849 8.30059 16.8388L8.30069 16.839C8.34566 16.9415 8.38651 17.0346 8.42324 17.1188L8.5262 17.3554C8.68438 17.7195 8.89861 18.2125 9.1797 18.8346H12.226L12.962 17.1779C13.2073 16.6257 13.4527 16.0735 13.6775 15.5213C14.2296 14.2985 14.7816 13.0757 15.3131 11.853C15.5788 11.2419 15.8495 10.6258 16.1203 10.0098L16.1205 10.0093L16.1207 10.009C16.3916 9.39267 16.6625 8.77633 16.9283 8.16492H17.01V18.8346H21.4261V0.374695H16.0082C14.8429 2.95829 13.9638 4.91078 13.3913 6.21244C13.0679 6.94788 12.64 7.90368 12.1151 9.07629C11.711 9.97906 11.2493 11.0103 10.7335 12.1685H10.6926C9.52726 9.58492 8.64813 7.63243 8.07568 6.33077C7.75224 5.59532 7.32438 4.63952 6.79946 3.46692L6.79945 3.4669C6.39532 2.56413 5.93367 1.53285 5.41786 0.374695ZM43.5677 0.374695H48.1269C48.1844 0.527202 48.2369 0.662652 48.2834 0.78276L48.2834 0.782895L48.2837 0.78357L48.2839 0.784194L48.284 0.784307L48.284 0.784406C48.3695 1.0052 48.4348 1.17405 48.4745 1.30163C48.5146 1.39826 48.5595 1.51856 48.6142 1.66486C48.6712 1.81715 48.7386 1.99761 48.8221 2.20885C49.1113 2.95833 49.4173 3.74972 49.74 4.58431L49.7425 4.59074C50.2173 5.81873 50.7283 7.14023 51.2754 8.55937C52.1954 10.9457 52.8292 12.6418 53.1972 13.6674H53.2381C53.3884 13.2751 53.5463 12.857 53.7152 12.4099L53.7156 12.409L53.7161 12.4075L53.7166 12.4062L53.717 12.4052L53.7173 12.4043L53.7179 12.4028C53.9389 11.8179 54.1785 11.1834 54.4444 10.4921C54.8549 9.37617 55.2994 8.22735 55.7625 7.03068L55.8959 6.68577C56.4275 5.2855 56.8977 4.02328 57.3066 2.91885C57.6282 2.05029 57.8992 1.34031 58.1096 0.788884L58.1102 0.787339L58.1166 0.770778L58.1178 0.76758C58.1718 0.626009 58.2218 0.495048 58.2675 0.374695H62.8267L55.7937 18.8346H50.6212L43.5677 0.374695ZM68.9398 0.374695H64.6055V18.8346H68.9398V0.374695ZM72.5789 0.374695H85.2546V4.25995H76.9131V7.45493H84.7639V11.5571H76.9131V14.969H85.4999V18.8543H72.5789V0.374695ZM85.5 25.5401H81.1657V44H85.5V25.5401ZM72.5789 25.5401H67.4473L60.3529 44H64.8712C64.9644 43.7514 65.0517 43.5199 65.1328 43.305L65.133 43.3043C65.3541 42.7181 65.5285 42.2557 65.6481 41.9095C65.788 41.5646 65.9751 41.0716 66.2185 40.4305C66.2953 40.2282 66.3777 40.0112 66.4659 39.7795H73.4171L73.4172 39.7795L73.4172 39.7797C73.7443 40.6474 73.9896 41.2981 74.1736 41.7517C74.2553 41.9685 74.3626 42.2444 74.4928 42.5793L74.4929 42.5797C74.6233 42.9151 74.7767 43.3096 74.9505 43.7633C74.9709 43.8028 74.9863 43.8422 75.0016 43.8817L75.0017 43.8818C75.017 43.9212 75.0323 43.9606 75.0527 44H79.6937L72.5993 25.5401H72.5789ZM9.11836 26.4079H51.2346C56.2705 26.4079 60.3529 30.346 60.3529 35.2039C60.3529 40.0619 56.2705 44 51.2346 44H9.11836C4.08243 44 0 40.0619 0 35.2039C0 30.346 4.08243 26.4079 9.11836 26.4079Z" fill="url(#paint0_linear_642_951)"/>
<defs>
<linearGradient id="paint0_linear_642_951" x1="85.4806" y1="47" x2="-20.5853" y2="-29.5498" gradientUnits="userSpaceOnUse">
<stop stop-color="#9747FF"/>
<stop offset="1" stop-color="#C497FF"/>
</linearGradient>
</defs>
</svg>
